<svg width="20" height="20" viewBox="0 0 20 20" fill="none" xmlns="http://www.w3.org/2000/svg">
<g id="thunder 1" clip-path="url(#clip0_39_157)">
<g id="Group">
<g id="Group_2">
<path id="Vector" d="M15.5237 7.78517C15.4087 7.60642 15.2112 7.50017 15 7.50017H10.625V0.625264C10.625 0.330268 10.4188 0.0752718 10.1301 0.0140226C9.83631 -0.0484765 9.54881 0.102771 9.42881 0.371518L4.42888 11.6214C4.34263 11.8139 4.36138 12.0389 4.47638 12.2151C4.59138 12.3926 4.78888 12.5001 5.00012 12.5001H9.37506V19.375C9.37506 19.67 9.58131 19.925 9.87005 19.9862C9.9138 19.995 9.95755 20 10.0001 20C10.2425 20 10.4688 19.8587 10.5713 19.6288L15.5712 8.37891C15.6562 8.18516 15.64 7.96266 15.5237 7.78517Z" fill="white"/>
</g>
</g>
</g>
<defs>
<clipPath id="clip0_39_157">
<rect width="20" height="20" fill="white"/>
</clipPath>
</defs>
</svg>
